<?xml version="1.0" encoding="UTF-8" standalone="no"?>
<svg
   xmlns:dc="http://purl.org/dc/elements/1.1/"
   xmlns:cc="http://creativecommons.org/ns#"
   xmlns:rdf="http://www.w3.org/1999/02/22-rdf-syntax-ns#"
   xmlns:svg="http://www.w3.org/2000/svg"
   xmlns="http://www.w3.org/2000/svg"
   viewBox="0 0 478.66666 122.66667"
   height="122.66667"
   width="478.66666"
   xml:space="preserve"
   id="svg2"
   version="1.1"><metadata
     id="metadata8"><rdf:RDF><cc:Work
         rdf:about=""><dc:format>image/svg+xml</dc:format><dc:type
           rdf:resource="http://purl.org/dc/dcmitype/StillImage" /></cc:Work></rdf:RDF></metadata><defs
     id="defs6" /><g
     transform="matrix(1.3333333,0,0,-1.3333333,0,122.66667)"
     id="g10"><g
       transform="scale(0.1)"
       id="g12"><path
         id="path14"
         style="fill:#ffffff;fill-opacity:1;fill-rule:nonzero;stroke:none"
         d="m 3358.52,548.68 h -173.76 l -21.61,-48.465 c -6.87,-16.238 -10.24,-29.727 -10.24,-40.348 0,-14.117 5.62,-24.48 16.74,-31.226 6.62,-3.871 22.86,-6.871 48.71,-8.868 v -12.742 h -165 v 12.742 c 17.73,2.747 32.47,10.243 43.84,22.36 11.49,12.238 25.73,37.472 42.47,75.695 l 177.38,395.844 h 6.99 l 179,-406.836 c 17.11,-38.973 31.1,-63.578 42.09,-73.699 8.37,-7.742 19.99,-12.117 35.23,-13.364 v -12.742 h -240.08 v 12.742 h 9.87 c 19.23,0 32.85,2.747 40.59,8.243 5.37,3.871 7.99,9.617 7.99,16.988 0,4.5 -0.62,9.117 -2.12,13.863 -0.5,2.125 -4.12,11.496 -10.99,27.86 z m -11.75,26.98 -74.07,169.258 -75.82,-169.258 z" /><path
         id="path16"
         style="fill:#ffffff;fill-opacity:1;fill-rule:nonzero;stroke:none"
         d="m 2661,407.031 v 12.742 h 15.75 c 24.23,0 39.34,5.122 45.21,15.364 5.87,10.367 8.74,29.23 8.74,56.586 V 871.707 H 2555.33 V 491.723 c 0,-32.106 3.87,-52.086 11.62,-59.957 7.62,-7.993 22.1,-11.993 43.34,-11.993 h 14.74 v -12.742 h -258.57 v 12.742 h 15.74 c 21.86,0 36.23,4.122 43.34,12.493 7.12,8.363 10.62,28.101 10.62,59.457 v 56.011 c 0,33.274 30.05,56.133 30.98,56.844 l 0.03,0.012 c 17.13,10.469 28.58,29.34 28.58,50.89 0,21.551 -11.45,40.422 -28.58,50.891 l -0.03,0.02 c -0.93,0.703 -30.98,23.566 -30.98,56.839 v 56.008 c 0,29.731 -3.25,49.215 -9.86,58.336 -6.62,9.121 -21.37,13.614 -44.1,13.614 h -15.74 v 12.738 h 553.11 v -12.738 h -13.11 c -23.24,0 -38.48,-4.622 -45.72,-13.985 -7.25,-9.371 -10.87,-28.734 -10.87,-57.965 V 763.23 c 0,-33.804 -31.01,-56.859 -31.01,-56.859 h 0.01 c -17.14,-10.469 -28.58,-29.34 -28.58,-50.891 0,-21.546 11.44,-40.421 28.58,-50.882 l -0.01,-0.008 c 0,0 31.01,-23.055 31.01,-56.856 v -56.011 c 0,-32.106 4.13,-52.086 12.37,-59.957 8.24,-7.993 23.48,-11.993 45.71,-11.993 h 11.62 V 407.031 H 2661" /><path
         id="path18"
         style="fill:#ffffff;fill-opacity:1;fill-rule:nonzero;stroke:none"
         d="m 1996.21,909.926 c 79.07,2.875 143.4,-20.113 192.86,-69.074 49.46,-49.09 74.2,-110.297 74.2,-183.997 0,-62.828 -18.49,-118.164 -55.34,-166.003 -48.84,-63.336 -117.79,-95.059 -206.98,-95.059 -89.43,0 -158.52,30.223 -207.35,90.68 -38.6,47.843 -57.96,104.425 -57.96,170.004 0,73.699 25.11,135.035 75.32,184.125 50.22,49.211 111.93,72.199 185.25,69.324 z m 4.37,-23.231 c -45.6,0 -80.19,-23.109 -104.05,-69.453 -2.55,-4.984 -4.92,-10.258 -7.12,-15.816 -9.52,-8.52 -19.05,-21.274 -19.05,-38.196 0,-33.804 -31.01,-56.859 -31.01,-56.859 h 0.01 c -17.15,-10.469 -28.59,-29.34 -28.59,-50.891 0,-21.55 11.44,-40.421 28.59,-50.882 l -0.01,-0.008 c 0,0 31.01,-23.055 31.01,-56.856 0,-16.593 9.16,-29.175 18.49,-37.691 6.41,-16.863 14.25,-31.59 23.54,-44.18 20.86,-28.23 49.97,-42.347 87.44,-42.347 25.23,0 46.34,6.129 63.21,18.242 20.25,14.715 36.39,37.758 48.22,69.019 9.05,8.496 17.7,20.832 17.7,36.957 0,33.25 30,56.102 30.98,56.836 v 0.008 l 0.03,0.012 c 17.13,10.469 28.57,29.34 28.57,50.89 0,21.551 -11.44,40.43 -28.57,50.891 l -0.03,0.02 c -0.93,0.703 -30.98,23.566 -30.98,56.839 0,15.399 -7.89,27.344 -16.49,35.793 -12.16,31.864 -27.59,54.379 -46.31,67.559 -18.99,13.363 -40.85,20.113 -65.58,20.113" /><path
         id="path20"
         style="fill:#ffffff;fill-opacity:1;fill-rule:nonzero;stroke:none"
         d="M 1368.77,631.871 V 493.965 c 0,-27.102 1.63,-44.09 5,-51.086 3.25,-6.996 9.12,-12.617 17.61,-16.863 8.37,-4.121 23.86,-6.243 46.34,-6.243 v -12.742 h -252.57 v 12.742 c 22.99,0 38.6,2.122 46.72,6.493 8.25,4.25 13.99,9.871 17.24,16.742 3.37,6.867 5,23.855 5,50.957 v 53.769 c 0,33.801 31,56.856 31,56.856 v 0.008 c 17.13,10.461 28.58,29.336 28.58,50.882 0,21.551 -11.45,40.422 -28.58,50.891 v 0 c 0,0 -31,23.055 -31,56.859 v 53.758 c 0,27.11 -1.63,44.098 -5,51.094 -3.25,6.996 -8.99,12.617 -17.36,16.863 -8.37,4.121 -23.86,6.243 -46.6,6.243 v 12.738 h 216.6 c 71.32,0 122.54,-12.738 153.52,-38.094 31.11,-25.484 46.59,-57.207 46.59,-95.305 0,-32.351 -9.99,-59.961 -30.11,-82.945 -19.98,-22.984 -47.59,-38.598 -82.81,-46.969 -23.61,-5.871 -63.71,-8.742 -120.17,-8.742 z m 0,243.582 V 660.348 c 8.12,-0.493 14.24,-0.743 18.37,-0.743 29.85,0 52.96,8.864 69.07,26.602 16.12,17.734 24.24,45.219 24.24,82.445 0,36.973 -8.12,63.95 -24.24,81.067 -16.11,17.113 -40.35,25.734 -72.32,25.734 h -15.12" /><path
         id="path22"
         style="fill:#ffffff;fill-opacity:1;fill-rule:nonzero;stroke:none"
         d="m 910.348,670.719 c 47.34,-10.992 80.691,-24.356 99.802,-39.977 27.48,-22.23 41.22,-51.086 41.22,-86.554 0,-37.348 -14.99,-68.329 -45.1,-92.813 C 969.43,421.77 915.84,407.031 845.637,407.031 H 593.316 v 12.742 c 22.985,0 38.598,2.122 46.719,6.493 8.246,4.25 13.988,9.871 17.238,16.742 3.372,6.867 4.993,23.855 4.993,50.957 v 53.769 c 0,33.801 31.011,56.856 31.011,56.856 l -0.004,0.008 c 17.137,10.461 28.579,29.336 28.579,50.882 0,21.551 -11.442,40.422 -28.579,50.891 h 0.004 c 0,0 -31.011,23.055 -31.011,56.859 v 53.758 c 0,27.11 -1.621,44.098 -4.993,51.094 -3.25,6.996 -9.121,12.617 -17.363,16.863 -8.367,4.121 -23.859,6.243 -46.594,6.243 v 12.738 h 238.082 c 56.961,0 97.18,-5.113 120.915,-15.231 23.734,-10.125 42.347,-25.234 56.087,-45.347 13.61,-20.114 20.49,-41.594 20.49,-64.207 0,-23.981 -8.75,-45.211 -26.24,-63.957 -17.482,-18.61 -48.216,-33.473 -92.302,-44.465 z m -133.407,9.871 c 34.969,0 60.829,3.867 77.442,11.738 16.609,7.746 29.355,18.738 38.222,32.981 8.872,14.117 13.364,32.222 13.364,54.211 0,21.984 -4.371,39.968 -13.11,53.957 -8.742,14.121 -21.234,24.734 -37.601,32.105 -16.235,7.371 -42.348,10.867 -78.317,10.621 z m 0,-28.481 v -177.5 c 0,-13.117 3.243,-23.109 9.864,-29.73 6.621,-6.742 16.367,-10.121 29.359,-10.121 19.231,0 36.848,4.379 53.082,13 16.238,8.609 28.609,21.105 37.231,37.59 8.617,16.367 12.988,34.73 12.988,54.84 0,23.105 -4.875,43.839 -14.496,62.203 -9.739,18.359 -23.977,31.355 -42.965,38.851 -18.984,7.492 -47.348,11.113 -85.063,10.867" /><path
         id="path24"
         style="fill:#ffffff;fill-opacity:1;fill-rule:nonzero;stroke:none"
         d="M 197.219,875.453 V 673.09 h 9.867 c 31.602,0 54.461,9.871 68.703,29.609 14.117,19.735 23.234,48.836 27.109,87.313 h 14.239 V 529.945 h -14.239 c -2.875,28.356 -9.121,51.59 -18.488,69.575 -9.496,18.113 -20.363,30.23 -32.855,36.472 -12.492,6.25 -30.606,9.371 -54.336,9.371 V 505.715 c 0,-27.363 1.129,-43.973 3.496,-50.094 2.254,-6.117 6.625,-11.117 12.992,-14.992 6.371,-3.871 16.613,-5.871 30.727,-5.871 h 29.734 c 46.336,0 83.562,10.746 111.543,32.105 27.98,21.36 48.094,53.965 60.211,97.934 h 13.613 L 437.176,407.031 H 8.35547 v 12.742 H 24.7148 c 14.3672,0 25.9844,2.625 34.7305,7.743 6.3711,3.5 11.2344,9.371 14.6133,17.742 2.6211,5.867 3.9922,21.355 3.9922,46.465 v 56.011 c 0,33.801 31.0122,56.856 31.0122,56.856 l -0.004,0.008 c 17.136,10.461 28.578,29.336 28.578,50.882 0,21.551 -11.442,40.422 -28.578,50.891 h 0.004 c 0,0 -31.0122,23.055 -31.0122,56.859 v 56.008 c 0,22.614 -0.6211,36.481 -1.8672,41.723 -2.3789,8.621 -6.8711,15.242 -13.4961,19.859 -9.2383,6.871 -21.8594,10.368 -37.9727,10.368 H 8.35547 v 12.738 H 423.555 V 757.035 H 409.32 c -6.996,35.977 -16.988,61.703 -29.73,77.317 -12.735,15.617 -30.727,27.109 -54.086,34.48 -13.617,4.371 -39.098,6.621 -76.57,6.621 h -51.715" /><path
         id="path26"
         style="fill:#ffffff;fill-opacity:1;fill-rule:nonzero;stroke:none"
         d="M 92.8125,25.6133 H 68.2656 L 29.6641,76.2578 V 25.6133 H 8.35938 V 133.688 H 29.6641 V 85.9805 L 66.7227,133.688 H 91.2695 L 51.2813,81.1953 Z m 202.9765,14.125 c -10.91,-10.8516 -24.191,-16.2852 -39.832,-16.2852 -15.644,0 -28.898,5.4336 -39.758,16.2852 -10.855,10.8594 -16.289,24.168 -16.289,39.918 0,15.746 5.434,29.0467 16.289,39.9067 10.86,10.859 24.114,16.289 39.758,16.289 15.641,0 28.922,-5.43 39.832,-16.289 10.91,-10.86 16.367,-24.1607 16.367,-39.9067 0,-15.75 -5.457,-29.0586 -16.367,-39.918 z m -64.687,14.5156 c 6.687,-6.6367 14.976,-9.957 24.855,-9.957 9.883,0 18.168,3.3203 24.859,9.957 6.688,6.6367 10.036,15.1094 10.036,25.4024 0,10.2929 -3.348,18.7812 -10.036,25.4687 -6.691,6.691 -14.976,10.039 -24.859,10.039 -9.879,0 -18.168,-3.348 -24.855,-10.039 -6.692,-6.6875 -10.039,-15.1758 -10.039,-25.4687 0,-10.293 3.347,-18.7657 10.039,-25.4024 z m 272.14,79.4341 V 113.313 H 474.063 V 25.6133 H 452.758 V 113.313 H 423.73 v 20.375 z m 194.176,0 v -20.375 h -29.18 V 25.6133 h -21.304 v 87.6997 h -29.028 v 20.375 z M 841.414,45.9961 h 45.547 V 25.6133 H 820.109 V 133.688 h 66.079 V 113.313 H 841.414 V 90.3086 h 40.914 V 70.2344 h -40.914 z m 254.386,0 h 11.58 V 4.92578 h -21.31 V 25.6133 h -59.75 V 4.92578 h -21.3 V 45.9961 h 10.5 c 5.96,8.3359 8.95,20.5352 8.95,36.5898 v 51.1021 h 71.33 z m -57.43,0 h 36.13 v 67.7769 h -28.73 V 82.2813 c 0,-15.6485 -2.47,-27.7461 -7.4,-36.2852 z m 321.7,-20.3828 h -23.77 l -33.51,49.2539 V 25.6133 h -21.31 v 49.2539 l -33.5,-49.2539 h -23.62 l 37.52,55.1211 -35.98,52.9536 h 23.63 l 31.95,-48.1685 v 48.1685 h 21.31 V 85.5195 l 31.96,48.1685 h 23.78 L 1322.4,80.7344 Z m 184.14,108.0747 h 21.16 V 25.6133 h -21.16 v 44.7773 h -40.14 V 25.6133 h -21.3 V 133.688 h 21.3 V 90.7695 h 40.14 z M 1696.24,25.6133 V 133.688 h 21.3 V 98.1836 h 19 c 10.39,0 19.14,-3.5039 26.24,-10.5 7.11,-7 10.66,-15.5977 10.66,-25.7852 0,-10.1914 -3.55,-18.7851 -10.66,-25.7851 -7.1,-7 -15.85,-10.5 -26.24,-10.5 z m 87.08,0 V 133.688 h 21.15 V 25.6133 Z m -65.78,19.9219 h 19 c 4.53,0 8.28,1.539 11.26,4.6289 2.99,3.0898 4.48,6.9961 4.48,11.7343 0,4.7344 -1.49,8.6446 -4.48,11.7344 -2.98,3.086 -6.73,4.6289 -11.26,4.6289 h -19 z M 1954.8,143.57 v 17.293 h 44.77 V 143.57 Z M 1997.88,25.6133 V 91.543 l -46.33,-65.9297 h -16.2 V 133.688 h 21.3 V 67.6094 l 46.32,66.0786 h 16.21 V 25.6133 Z M 2269.4,133.688 V 25.6133 h -21.3 v 87.6997 h -38.14 V 25.6133 h -21.31 V 133.688 Z m 221.81,-93.9497 c -10.91,-10.8516 -24.19,-16.2852 -39.83,-16.2852 -15.65,0 -28.9,5.4336 -39.75,16.2852 -10.86,10.8594 -16.29,24.168 -16.29,39.918 0,15.746 5.43,29.0467 16.29,39.9067 10.85,10.859 24.1,16.289 39.75,16.289 15.64,0 28.92,-5.43 39.83,-16.289 10.92,-10.86 16.37,-24.1607 16.37,-39.9067 0,-15.75 -5.45,-29.0586 -16.37,-39.918 z m -64.68,14.5156 c 6.68,-6.6367 14.97,-9.957 24.85,-9.957 9.89,0 18.17,3.3203 24.86,9.957 6.69,6.6367 10.03,15.1094 10.03,25.4024 0,10.2929 -3.34,18.7812 -10.03,25.4687 -6.69,6.691 -14.97,10.039 -24.86,10.039 -9.88,0 -18.17,-3.348 -24.85,-10.039 -6.69,-6.6875 -10.04,-15.1758 -10.04,-25.4687 0,-10.293 3.35,-18.7657 10.04,-25.4024 z m 258.09,-30.8008 c -16.26,0 -29.69,5.4063 -40.3,16.2149 -10.6,10.8047 -15.9,24.1328 -15.9,39.9883 0,15.9531 5.3,29.3047 15.9,40.0627 10.61,10.754 24.04,16.133 40.3,16.133 9.78,0 18.81,-2.289 27.09,-6.868 8.29,-4.582 14.75,-10.785 19.38,-18.609 l -18.37,-10.6523 c -2.68,4.8363 -6.49,8.6213 -11.43,11.3473 -4.94,2.727 -10.5,4.094 -16.67,4.094 -10.5,0 -18.97,-3.297 -25.4,-9.883 -6.43,-6.5857 -9.65,-15.1287 -9.65,-25.6247 0,-10.3985 3.22,-18.8907 9.65,-25.4766 6.43,-6.5859 14.9,-9.8828 25.4,-9.8828 6.17,0 11.76,1.3633 16.75,4.0898 4.99,2.7305 8.77,6.461 11.35,11.1914 l 18.37,-10.6484 c -4.63,-7.8242 -11.06,-14.0234 -19.3,-18.6055 -8.23,-4.582 -17.29,-6.8711 -27.17,-6.8711 z m 196.1,120.8129 c -2.01,-2.008 -4.45,-3.012 -7.33,-3.012 -2.89,0 -5.35,1.004 -7.41,3.012 -2.06,2.007 -3.09,4.453 -3.09,7.332 0,2.886 1.03,5.355 3.09,7.414 2.06,2.058 4.52,3.086 7.41,3.086 2.88,0 5.32,-1.028 7.33,-3.086 2.01,-2.059 3.01,-4.528 3.01,-7.414 0,-2.879 -1,-5.325 -3.01,-7.332 z m 29.34,0 c -2.01,-2.008 -4.45,-3.012 -7.34,-3.012 -2.88,0 -5.34,1.004 -7.41,3.012 -2.06,2.007 -3.08,4.453 -3.08,7.332 0,2.886 1.02,5.355 3.08,7.414 2.07,2.058 4.53,3.086 7.41,3.086 2.89,0 5.33,-1.028 7.34,-3.086 2.01,-2.059 3.01,-4.528 3.01,-7.414 0,-2.879 -1,-5.325 -3.01,-7.332 z m -33.74,-98.2699 h 45.55 V 25.6133 h -66.85 V 133.688 h 66.08 v -20.375 h -44.78 V 90.3086 h 40.92 V 70.2344 h -40.92 z m 162.99,-20.3828 v 19.7656 c 6.38,-0.9297 11.17,0.3594 14.36,3.8594 3.19,3.5 4.78,10.3398 4.78,20.5351 v 63.9146 h 73.5 V 25.6133 h -21.15 v 87.6997 h -31.19 V 70.3906 c 0,-9.3672 -1.14,-17.2422 -3.4,-23.625 -2.26,-6.3789 -5.38,-11.1133 -9.34,-14.2031 -3.96,-3.0859 -8.18,-5.1445 -12.66,-6.1719 -4.48,-1.0312 -9.45,-1.2929 -14.9,-0.7773 z m 314.45,14.125 c -10.91,-10.8516 -24.19,-16.2852 -39.84,-16.2852 -15.64,0 -28.89,5.4336 -39.76,16.2852 -10.85,10.8594 -16.28,24.168 -16.28,39.918 0,15.746 5.43,29.0467 16.28,39.9067 10.87,10.859 24.12,16.289 39.76,16.289 15.65,0 28.93,-5.43 39.84,-16.289 10.91,-10.86 16.36,-24.1607 16.36,-39.9067 0,-15.75 -5.45,-29.0586 -16.36,-39.918 z m -64.69,14.5156 c 6.68,-6.6367 14.97,-9.957 24.85,-9.957 9.88,0 18.17,3.3203 24.86,9.957 6.69,6.6367 10.04,15.1094 10.04,25.4024 0,10.2929 -3.35,18.7812 -10.04,25.4687 -6.69,6.691 -14.98,10.039 -24.86,10.039 -9.88,0 -18.17,-3.348 -24.85,-10.039 -6.69,-6.6875 -10.04,-15.1758 -10.04,-25.4687 0,-10.293 3.35,-18.7657 10.04,-25.4024 z m 291.29,-28.6406 h -24.55 l -38.6,50.6445 V 25.6133 H 3495.9 V 133.688 h 21.31 V 85.9805 l 37.06,47.7075 h 24.55 l -40,-52.4927 41.54,-55.582" /></g></g></svg>